<?xml version="1.0" encoding="UTF-8" standalone="no"?>
<!-- Created with Inkscape (http://www.inkscape.org/) -->

<svg
   width="216.88116"
   height="19.928425"
   viewBox="0 0 216.88116 19.928425"
   version="1.1"
   id="svg1"
   inkscape:export-filename="logo-text-white.svg"
   inkscape:export-xdpi="96"
   inkscape:export-ydpi="96"
   sodipodi:docname="logo-text-white.svg"
   inkscape:version="1.3.2 (091e20e, 2023-11-25, custom)"
   xmlns:inkscape="http://www.inkscape.org/namespaces/inkscape"
   xmlns:sodipodi="http://sodipodi.sourceforge.net/DTD/sodipodi-0.dtd"
   xmlns="http://www.w3.org/2000/svg"
   xmlns:svg="http://www.w3.org/2000/svg">
  <sodipodi:namedview
     id="namedview1"
     pagecolor="#ffffff"
     bordercolor="#000000"
     borderopacity="0.25"
     inkscape:showpageshadow="2"
     inkscape:pageopacity="0.0"
     inkscape:pagecheckerboard="0"
     inkscape:deskcolor="#d1d1d1"
     inkscape:document-units="px"
     inkscape:export-bgcolor="#ffffff00"
     inkscape:zoom="5.1871724"
     inkscape:cx="108.44058"
     inkscape:cy="9.9283378"
     inkscape:window-width="1920"
     inkscape:window-height="1017"
     inkscape:window-x="-8"
     inkscape:window-y="-8"
     inkscape:window-maximized="1"
     inkscape:current-layer="layer1" />
  <defs
     id="defs1" />
  <g
     inkscape:label="Capa 1"
     inkscape:groupmode="layer"
     id="layer1"
     transform="translate(280.01428,75.185204)"
     style="display:inline;opacity:1;mix-blend-mode:normal">
    <g
       id="g5"
       transform="matrix(0.42320467,0,0,0.42320467,-129.12255,-105.19128)"
       inkscape:export-filename="logo-text-white.svg"
       inkscape:export-xdpi="96"
       inkscape:export-ydpi="96">
      <rect
         style="fill:none;fill-opacity:1;stroke-width:2.90377"
         id="rect9"
         width="512.47345"
         height="47.089336"
         x="-356.5455"
         y="70.902039" />
      <path
         style="font-style:italic;font-weight:bold;font-size:37.7752px;font-family:Archivo;-inkscape-font-specification:'Archivo Bold Italic';fill:#ffffff;stroke-width:3.14794"
         d="m -347.39622,107.4036 4.5708,-25.913785 h 13.56129 q 2.68204,0 4.45748,0.831055 1.77543,0.793279 2.64426,2.266512 0.86883,1.435457 0.86883,3.399768 0,2.266512 -0.67995,4.041946 -0.67996,1.775435 -2.00209,3.022016 -1.28436,1.246582 -3.21089,2.002086 l 3.47532,10.350402 h -6.08181 l -2.94647,-9.406022 h -7.36616 l -1.66211,9.406022 z m 8.12166,-13.901271 h 7.63059 q 1.24659,0 2.26652,-0.566628 1.0577,-0.604403 1.66211,-1.662109 0.6044,-1.057705 0.6044,-2.493163 0,-1.284357 -0.79328,-2.002086 -0.79328,-0.717728 -2.26651,-0.717728 h -7.81947 z m 30.90007,14.354571 q -4.91078,0 -7.66836,-2.03986 -2.71982,-2.07763 -2.71982,-6.081803 0,-0.528853 0.0378,-1.133256 0.0756,-0.642178 0.18887,-1.246582 l 2.79537,-15.865584 h 5.6285 l -2.79536,15.941135 q -0.0378,0.264426 -0.11333,0.717729 -0.0378,0.415527 -0.0378,0.755504 0,2.115407 1.2088,3.248667 1.20881,1.09548 3.62642,1.09548 2.75759,0 4.49525,-1.47323 1.77543,-1.51101 2.26651,-4.306375 l 2.83314,-15.97891 h 5.66628 l -2.83314,16.205561 q -0.6044,3.399764 -2.22873,5.666284 -1.62434,2.26651 -4.23083,3.39976 -2.56871,1.09548 -6.11958,1.09548 z m 16.43218,-0.4533 4.60858,-25.913785 h 5.1752 l 7.55504,13.939049 q 0.26443,0.415527 0.52885,0.982155 0.3022,0.528853 0.56663,1.095481 0.3022,0.528853 0.52885,0.982155 l 0.22665,-0.03777 q 0.0755,-0.642178 0.18888,-1.397682 0.11333,-0.755504 0.18888,-1.246582 l 2.45538,-14.316801 h 5.36408 l -4.5708,25.91379 h -5.1752 L -281.743,93.691205 q -0.33998,-0.604403 -0.86883,-1.586558 -0.49108,-1.019931 -0.86883,-1.73766 h -0.18888 q -0.0756,0.679954 -0.22665,1.624334 -0.1511,0.906605 -0.26443,1.473233 l -2.41761,13.939046 z m 28.48249,0 4.60858,-25.913785 h 5.1752 l 7.55504,13.939049 q 0.26443,0.415527 0.52885,0.982155 0.3022,0.528853 0.56663,1.095481 0.3022,0.528853 0.52885,0.982155 l 0.22665,-0.03777 q 0.0755,-0.642178 0.18888,-1.397682 0.11333,-0.755504 0.18888,-1.246582 l 2.45538,-14.316801 h 5.36408 l -4.5708,25.91379 h -5.1752 l -7.44171,-13.7124 q -0.33998,-0.604403 -0.86883,-1.586558 -0.49108,-1.019931 -0.86883,-1.73766 h -0.18888 q -0.0755,0.679954 -0.22665,1.624334 -0.1511,0.906605 -0.26443,1.473233 l -2.41761,13.939051 z m 28.48249,0 4.60858,-25.913785 h 5.6285 l -4.5708,25.913785 z m 11.37036,0 4.60857,-25.913785 h 5.1752 l 7.55504,13.939049 q 0.26443,0.415527 0.52886,0.982155 0.3022,0.528853 0.56662,1.095481 0.30221,0.528853 0.52886,0.982155 l 0.22665,-0.03777 q 0.0755,-0.642178 0.18887,-1.397682 0.11333,-0.755504 0.18888,-1.246582 l 2.45539,-14.316801 h 5.36408 l -4.5708,25.91379 h -5.1752 l -7.44172,-13.7124 q -0.33998,-0.604403 -0.86883,-1.586558 -0.49108,-1.019931 -0.86883,-1.73766 h -0.18887 q -0.0755,0.679954 -0.22666,1.624334 -0.1511,0.906605 -0.26442,1.473233 l -2.41761,13.939051 z m 40.26836,0.4533 q -5.21298,0 -8.0839,-2.45538 -2.87091,-2.49317 -2.87091,-7.630593 0,-1.246582 0.11333,-2.417613 0.1511,-1.171031 0.37775,-2.228737 0.83105,-3.85307 2.87091,-6.53511 2.03986,-2.719814 5.13743,-4.117496 3.13534,-1.435458 7.10174,-1.435458 2.37983,0 4.45747,0.491078 2.07764,0.453302 3.62642,1.435457 1.58656,0.94438 2.45539,2.417613 0.86883,1.435458 0.86883,3.361993 0,0.415527 -0.0378,0.831054 -0.0378,0.415527 -0.11332,0.86883 h -5.70406 q 0.0378,-0.226651 0.0378,-0.415527 0,-0.188876 0,-0.377752 0,-0.982156 -0.41553,-1.699884 -0.41553,-0.755504 -1.17103,-1.246582 -0.71773,-0.528853 -1.73766,-0.793279 -0.98216,-0.264427 -2.15319,-0.264427 -1.96431,0 -3.55087,0.528853 -1.58655,0.528853 -2.75759,1.548783 -1.17103,0.982156 -1.96431,2.455388 -0.79328,1.435458 -1.13325,3.324218 -0.11333,0.793279 -0.22665,1.397682 -0.0755,0.604404 -0.1511,1.057706 -0.0378,0.453302 -0.0756,0.831054 -0.0378,0.339977 -0.0378,0.717729 0,1.926535 0.64218,3.21089 0.67995,1.28436 2.00208,1.92654 1.32214,0.6044 3.28645,0.6044 2.11541,0 3.89084,-0.64218 1.77544,-0.67995 2.90869,-1.88876 1.17103,-1.208804 1.35991,-2.757587 l 0.0378,-0.264427 h -7.70615 l 0.79328,-4.306373 h 13.29687 l -2.45538,14.014597 h -3.6642 l -0.0756,-2.87091 q -1.28436,1.09548 -2.68204,1.85098 -1.39768,0.71773 -2.98424,1.09548 -1.58656,0.37775 -3.51309,0.37775 z m 37.69961,0 q -5.21297,0 -8.08389,-2.45538 -2.87091,-2.49317 -2.87091,-7.630593 0,-1.246582 0.11332,-2.417613 0.1511,-1.171031 0.37775,-2.228737 0.83106,-3.85307 2.87092,-6.53511 2.03986,-2.719814 5.13743,-4.117496 3.13534,-1.435458 7.10173,-1.435458 2.37984,0 4.45748,0.491078 2.07763,0.453302 3.62642,1.435457 1.58655,0.94438 2.45538,2.417613 0.86883,1.435458 0.86883,3.361993 0,0.415527 -0.0378,0.831054 -0.0378,0.415527 -0.11333,0.86883 h -5.70405 q 0.0378,-0.226651 0.0378,-0.415527 0,-0.188876 0,-0.377752 0,-0.982156 -0.41552,-1.699884 -0.41553,-0.755504 -1.17104,-1.246582 -0.71772,-0.528853 -1.73766,-0.793279 -0.98215,-0.264427 -2.15318,-0.264427 -1.96431,0 -3.55087,0.528853 -1.58656,0.528853 -2.75759,1.548783 -1.17103,0.982156 -1.96431,2.455388 -0.79328,1.435458 -1.13326,3.324218 -0.11332,0.793279 -0.22665,1.397682 -0.0755,0.604404 -0.1511,1.057706 -0.0378,0.453302 -0.0756,0.831054 -0.0378,0.339977 -0.0378,0.717729 0,1.926535 0.64217,3.21089 0.67996,1.28436 2.00209,1.92654 1.32213,0.6044 3.28644,0.6044 2.11541,0 3.89085,-0.64218 1.77543,-0.67995 2.90869,-1.88876 1.17103,-1.208804 1.35991,-2.757587 l 0.0378,-0.264427 h -7.70614 l 0.79328,-4.306373 h 13.29687 l -2.45539,14.014597 h -3.66419 l -0.0755,-2.87091 q -1.28436,1.09548 -2.68204,1.85098 -1.39768,0.71773 -2.98424,1.09548 -1.58656,0.37775 -3.5131,0.37775 z m 31.12677,0 q -3.73974,0 -6.38401,-1.13325 -2.64426,-1.13326 -4.04194,-3.39977 -1.35991,-2.26651 -1.35991,-5.666279 0,-0.86883 0.0378,-1.737659 0.0756,-0.86883 0.22665,-1.699884 0.71773,-4.155272 2.64426,-7.101738 1.92654,-2.984241 5.06188,-4.533024 3.13534,-1.548783 7.44171,-1.548783 3.70197,0 6.34624,1.133256 2.64426,1.133256 4.04194,3.399768 1.43546,2.266512 1.43546,5.66628 0,0.831054 -0.07555,1.662109 -0.07555,0.831054 -0.226651,1.662109 -0.642179,4.193047 -2.606489,7.177285 -1.96431,2.98424 -5.13743,4.5708 -3.13534,1.54878 -7.40394,1.54878 z m 0.0756,-4.64634 q 1.92654,0 3.43755,-0.52886 1.54878,-0.56663 2.68204,-1.62433 1.17103,-1.057707 1.88876,-2.60649 0.7555,-1.548783 1.09548,-3.513093 0.11332,-0.717729 0.18887,-1.246582 0.11333,-0.528853 0.1511,-0.906605 0.0378,-0.415527 0.0378,-0.717729 0.0378,-0.302201 0.0378,-0.604403 0,-1.813209 -0.67995,-3.135341 -0.67995,-1.322132 -2.07764,-2.002086 -1.3599,-0.679954 -3.39976,-0.679954 -1.88876,0 -3.43755,0.566628 -1.51101,0.528853 -2.64426,1.586559 -1.13326,1.057705 -1.88876,2.606489 -0.71773,1.548783 -1.05771,3.513093 -0.1511,0.717729 -0.22665,1.246582 -0.0378,0.528853 -0.0755,0.94438 -0.0378,0.377752 -0.0756,0.679953 0,0.302202 0,0.604404 0,1.813209 0.67995,3.135345 0.67996,1.28435 2.03987,2.00208 1.3599,0.67996 3.32421,0.67996 z m 14.0901,4.19304 14.467897,-25.913785 h 6.950636 l 5.401854,25.913785 h -5.779606 l -0.982155,-5.09965 h -11.370335 l -2.757589,5.09965 z m 11.105904,-9.632673 h 8.083893 l -1.171031,-6.270684 q -0.113326,-0.679953 -0.226652,-1.359907 -0.113325,-0.679953 -0.264426,-1.359907 -0.113326,-0.717729 -0.188876,-1.284357 -0.07555,-0.604403 -0.151101,-1.095481 h -0.188876 q -0.377752,0.755504 -0.868829,1.73766 -0.453303,0.94438 -0.906605,1.88876 -0.453303,0.906604 -0.793279,1.548783 z m 18.849854,9.632673 4.570799,-25.913785 h 5.628505 l -3.70197,21.116335 h 12.994669 l -0.831055,4.79745 z m 36.113043,0 3.739745,-21.191885 h -8.310544 l 0.831054,-4.7219 h 22.325143 l -0.831054,4.7219 h -8.348319 l -3.739745,21.191885 z m 17.829919,0 4.570799,-25.913785 H 1.6842362 q 2.6820392,0 4.4574736,0.831055 1.7754344,0.793279 2.644264,2.266512 0.8688296,1.435457 0.8688296,3.399768 0,2.266512 -0.6799536,4.041946 -0.6799536,1.775435 -2.0020856,3.022016 -1.2843568,1.246582 -3.210892,2.002086 L 7.2371906,107.4036 H 1.1553834 l -2.9464656,-9.406022 h -7.3661639 l -1.6621089,9.406022 z m 8.1216683,-13.901271 h 7.63059033 q 1.24658159,0 2.26651197,-0.566628 1.0577056,-0.604403 1.6621088,-1.662109 0.6044032,-1.057705 0.6044032,-2.493163 0,-1.284357 -0.7932792,-2.002086 Q 2.2508642,86.060615 0.77763142,86.060615 H -7.041835 Z M 8.5215487,107.4036 22.98945,81.489815 h 6.950637 L 35.341941,107.4036 H 29.562335 L 28.58018,102.30395 H 17.209845 l -2.75759,5.09965 z M 19.627457,97.770927 H 27.71135 L 26.540319,91.500243 Q 26.426993,90.82029 26.313668,90.140336 26.200342,89.460383 26.049241,88.780429 25.935916,88.0627 25.860365,87.496072 q -0.07555,-0.604403 -0.1511,-1.095481 h -0.188876 q -0.377752,0.755504 -0.86883,1.73766 -0.453302,0.94438 -0.906605,1.88876 -0.453302,0.906604 -0.793279,1.548783 z M 49.809843,107.8569 q -5.401853,0 -8.272769,-2.41761 -2.870915,-2.45539 -2.870915,-7.668363 0,-1.019931 0.07555,-2.002086 0.113325,-0.982155 0.264426,-1.96431 0.717729,-4.004172 2.606489,-6.875087 1.926535,-2.870915 4.948551,-4.381923 3.022016,-1.511008 7.026187,-1.511008 3.135342,0 5.515179,0.906605 2.417613,0.868829 3.77752,2.682039 1.359908,1.775434 1.359908,4.495249 0,0.528853 -0.07555,1.057705 -0.03777,0.528853 -0.113325,1.095481 h -5.704056 q 0.07555,-0.339977 0.07555,-0.642178 0.03777,-0.339977 0.03777,-0.604403 0,-1.473233 -0.642178,-2.417613 -0.604404,-0.982155 -1.699884,-1.473233 -1.095481,-0.491078 -2.644264,-0.491078 -1.81321,0 -3.248668,0.566628 -1.397682,0.566628 -2.455388,1.586559 -1.057705,1.01993 -1.775434,2.493163 -0.679954,1.435458 -1.01993,3.248667 -0.151101,0.793279 -0.264427,1.397683 -0.113325,0.604403 -0.188876,1.09548 -0.03778,0.453303 -0.07555,0.831055 0,0.339977 0,0.717729 0,1.88876 0.604403,3.135339 0.604403,1.24658 1.850985,1.88876 1.246581,0.60441 3.097566,0.60441 1.964311,0 3.513094,-0.64218 1.548783,-0.64218 2.568713,-1.85099 1.019931,-1.246579 1.322132,-3.059789 h 5.51518 q -0.566628,3.437539 -2.417613,5.704059 -1.81321,2.26651 -4.570799,3.39976 -2.75759,1.09548 -6.119583,1.09548 z m 15.714471,-0.4533 4.608574,-25.913785 h 5.628505 L 73.721532,92.935701 86.300674,81.489815 h 7.403939 L 81.956526,92.029096 89.32269,107.4036 h -6.421784 l -5.288528,-11.521433 -5.099652,4.117496 -1.322132,7.403937 z m 55.151696,0 4.5708,-25.913785 h 13.5613 q 2.68204,0 4.45747,0.831055 1.77544,0.793279 2.64426,2.266512 0.86883,1.435457 0.86883,3.399768 0,2.266512 -0.67995,4.041946 -0.67995,1.775435 -2.00208,3.022016 -1.28436,1.246582 -3.2109,2.002086 l 3.47532,10.350402 h -6.08181 l -2.94646,-9.406022 h -7.36617 l -1.6621,9.406022 z m 8.12167,-13.901271 h 7.63059 q 1.24658,0 2.26651,-0.566628 1.05771,-0.604403 1.66211,-1.662109 0.6044,-1.057705 0.6044,-2.493163 0,-1.284357 -0.79328,-2.002086 -0.79327,-0.717728 -2.26651,-0.717728 h -7.81946 z"
         id="text1"
         aria-label="RUNNING GOAL TRACK    R" />
      <g
         id="g4"
         transform="matrix(0.87547895,0,-0.13618256,1.6763248,25.353732,-56.422523)"
         inkscape:export-filename="logo.svg"
         inkscape:export-xdpi="96"
         inkscape:export-ydpi="96">
        <path
           style="fill:#008000;fill-opacity:1"
           d="m 96.521101,82.26929 h 23.130739 l -0.92831,5.15114 -23.115999,0.004 z"
           id="path4"
           sodipodi:nodetypes="ccccc" />
        <path
           style="fill:#ffcc00;fill-opacity:1"
           d="m 95.600161,87.42243 h 23.130749 l -0.92831,5.15114 -23.115999,0.004 z"
           id="path4-8"
           sodipodi:nodetypes="ccccc" />
        <path
           style="fill:#d40000;fill-opacity:1"
           d="m 94.679221,92.57557 h 23.130749 l -0.92831,5.15114 -23.115999,0.004 z"
           id="path4-8-5"
           sodipodi:nodetypes="ccccc" />
      </g>
    </g>
  </g>
</svg>
